<svg xmlns="http://www.w3.org/2000/svg" xmlns:xlink="http://www.w3.org/1999/xlink" version="1.1" baseProfile="full" width="768" height="432" style="user-select: none; position: absolute; left: 0px; top: 0px;">
<g>
<rect width="768" height="432" x="0" y="0" id="0" style="fill: transparent;">
</rect>
</g>
<g>
<defs>
</defs>
<path d="M 76.8 362.5 L 691.2 362.5" fill="none" stroke="#E0E6F1" stroke-width="1" paint-order="fill" stroke-opacity="1" stroke-dasharray="" stroke-linecap="butt" stroke-miterlimit="10">
</path>
<path d="M 76.8 301.5 L 691.2 301.5" fill="none" stroke="#E0E6F1" stroke-width="1" paint-order="fill" stroke-opacity="1" stroke-dasharray="" stroke-linecap="butt" stroke-miterlimit="10">
</path>
<path d="M 76.8 241.5 L 691.2 241.5" fill="none" stroke="#E0E6F1" stroke-width="1" paint-order="fill" stroke-opacity="1" stroke-dasharray="" stroke-linecap="butt" stroke-miterlimit="10">
</path>
<path d="M 76.8 181.5 L 691.2 181.5" fill="none" stroke="#E0E6F1" stroke-width="1" paint-order="fill" stroke-opacity="1" stroke-dasharray="" stroke-linecap="butt" stroke-miterlimit="10">
</path>
<path d="M 76.8 120.5 L 691.2 120.5" fill="none" stroke="#E0E6F1" stroke-width="1" paint-order="fill" stroke-opacity="1" stroke-dasharray="" stroke-linecap="butt" stroke-miterlimit="10">
</path>
<path d="M 76.8 60.5 L 691.2 60.5" fill="none" stroke="#E0E6F1" stroke-width="1" paint-order="fill" stroke-opacity="1" stroke-dasharray="" stroke-linecap="butt" stroke-miterlimit="10">
</path>
<text xml:space="preserve" fill="#6E7079" fill-opacity="1" stroke="none" transform="matrix(1,0,0,1,76.8,45)" dominant-baseline="central" text-anchor="middle" x="0" y="-6" style="font: 12px &quot;Microsoft YaHei&quot;;">Y</text>
<path d="M 76.8 362.5 L 691.2 362.5" fill="none" stroke="#6E7079" stroke-width="1" paint-order="fill" stroke-opacity="1" stroke-dasharray="" stroke-linecap="round" stroke-miterlimit="10">
</path>
<path d="M 77.5 362 L 77.5 367" fill="none" stroke="#6E7079" stroke-width="1" paint-order="fill" stroke-opacity="1" stroke-dasharray="" stroke-linecap="butt" stroke-miterlimit="10">
</path>
<path d="M 281.5 362 L 281.5 367" fill="none" stroke="#6E7079" stroke-width="1" paint-order="fill" stroke-opacity="1" stroke-dasharray="" stroke-linecap="butt" stroke-miterlimit="10">
</path>
<path d="M 486.5 362 L 486.5 367" fill="none" stroke="#6E7079" stroke-width="1" paint-order="fill" stroke-opacity="1" stroke-dasharray="" stroke-linecap="butt" stroke-miterlimit="10">
</path>
<path d="M 691.5 362 L 691.5 367" fill="none" stroke="#6E7079" stroke-width="1" paint-order="fill" stroke-opacity="1" stroke-dasharray="" stroke-linecap="butt" stroke-miterlimit="10">
</path>
<text xml:space="preserve" fill="#6E7079" fill-opacity="1" stroke="none" transform="matrix(1,0,0,1,68.8,362)" dominant-baseline="central" text-anchor="end" x="0" y="0" style="font: 12px &quot;Microsoft YaHei&quot;;">1</text>
<text xml:space="preserve" fill="#6E7079" fill-opacity="1" stroke="none" transform="matrix(1,0,0,1,68.8,301.6)" dominant-baseline="central" text-anchor="end" x="0" y="0" style="font: 12px &quot;Microsoft YaHei&quot;;">2</text>
<text xml:space="preserve" fill="#6E7079" fill-opacity="1" stroke="none" transform="matrix(1,0,0,1,68.8,241.2)" dominant-baseline="central" text-anchor="end" x="0" y="0" style="font: 12px &quot;Microsoft YaHei&quot;;">3</text>
<text xml:space="preserve" fill="#6E7079" fill-opacity="1" stroke="none" transform="matrix(1,0,0,1,68.8,180.8)" dominant-baseline="central" text-anchor="end" x="0" y="0" style="font: 12px &quot;Microsoft YaHei&quot;;">4</text>
<text xml:space="preserve" fill="#6E7079" fill-opacity="1" stroke="none" transform="matrix(1,0,0,1,68.8,120.4)" dominant-baseline="central" text-anchor="end" x="0" y="0" style="font: 12px &quot;Microsoft YaHei&quot;;">5</text>
<text xml:space="preserve" fill="#6E7079" fill-opacity="1" stroke="none" transform="matrix(1,0,0,1,68.8,60)" dominant-baseline="central" text-anchor="end" x="0" y="0" style="font: 12px &quot;Microsoft YaHei&quot;;">6</text>
<text xml:space="preserve" fill="#6E7079" fill-opacity="1" stroke="none" transform="matrix(1,0,0,1,179.2,370)" dominant-baseline="central" text-anchor="middle" x="0" y="5" style="font: 10px &quot;Microsoft YaHei&quot;;">1</text>
<text xml:space="preserve" fill="#6E7079" fill-opacity="1" stroke="none" transform="matrix(1,0,0,1,384,370)" dominant-baseline="central" text-anchor="middle" x="0" y="5" style="font: 10px &quot;Microsoft YaHei&quot;;">2</text>
<text xml:space="preserve" fill="#6E7079" fill-opacity="1" stroke="none" transform="matrix(1,0,0,1,588.8,370)" dominant-baseline="central" text-anchor="middle" x="0" y="5" style="font: 10px &quot;Microsoft YaHei&quot;;">3</text>
<path d="M 100.352 362 L 146.7332 362 L 146.7332 362 L 100.352 362 L 100.352 362" fill="#5470c6" fill-opacity="1" stroke="none">
</path>
<path d="M 305.152 362 L 351.5332 362 L 351.5332 241.2 L 305.152 241.2 L 305.152 362" fill="#5470c6" fill-opacity="1" stroke="none">
</path>
<path d="M 509.952 362 L 556.3332 362 L 556.3332 180.8 L 509.952 180.8 L 509.952 362" fill="#5470c6" fill-opacity="1" stroke="none">
</path>
<path d="M 156.0094 362 L 202.3906 362 L 202.3906 301.6 L 156.0094 301.6 L 156.0094 362" fill="#91cc75" fill-opacity="1" stroke="none">
</path>
<path d="M 360.8094 362 L 407.1906 362 L 407.1906 180.8 L 360.8094 180.8 L 360.8094 362" fill="#91cc75" fill-opacity="1" stroke="none">
</path>
<path d="M 565.6094 362 L 611.9906 362 L 611.9906 120.4 L 565.6094 120.4 L 565.6094 362" fill="#91cc75" fill-opacity="1" stroke="none">
</path>
<path d="M 211.6668 362 L 258.048 362 L 258.048 241.2 L 211.6668 241.2 L 211.6668 362" fill="#fac858" fill-opacity="1" stroke="none">
</path>
<path d="M 416.4668 362 L 462.848 362 L 462.848 241.2 L 416.4668 241.2 L 416.4668 362" fill="#fac858" fill-opacity="1" stroke="none">
</path>
<path d="M 621.2668 362 L 667.648 362 L 667.648 60 L 621.2668 60 L 621.2668 362" fill="#fac858" fill-opacity="1" stroke="none">
</path>
<path d="M -5 -5 L 55.4902 -5 L 55.4902 67 L -5 67 L -5 -5" fill="rgba(0,0,0,0)" fill-opacity="1" stroke="#ccc" stroke-width="0" paint-order="fill" stroke-opacity="1" stroke-dasharray="" stroke-linecap="butt" stroke-miterlimit="10" transform="matrix(1,0,0,1,712.5098,185)">
</path>
<path d="M 3.5 0 L 21.5 0 A 3.5 3.5 0 0 1 25 3.5 L 25 10.5 A 3.5 3.5 0 0 1 21.5 14 L 3.5 14 A 3.5 3.5 0 0 1 0 10.5 L 0 3.5 A 3.5 3.5 0 0 1 3.5 0" fill="#5470c6" fill-opacity="1" stroke="none" transform="matrix(1,0,0,1,738,185)">
</path>
<text xml:space="preserve" fill="#333" fill-opacity="1" stroke="none" transform="matrix(1,0,0,1,738,185)" dominant-baseline="central" text-anchor="end" x="-5" y="7" style="font: 12px &quot;Microsoft YaHei&quot;;">y1</text>
<path d="M 3.5 0 L 21.5 0 A 3.5 3.5 0 0 1 25 3.5 L 25 10.5 A 3.5 3.5 0 0 1 21.5 14 L 3.5 14 A 3.5 3.5 0 0 1 0 10.5 L 0 3.5 A 3.5 3.5 0 0 1 3.5 0" fill="#91cc75" fill-opacity="1" stroke="none" transform="matrix(1,0,0,1,738,209)">
</path>
<text xml:space="preserve" fill="#333" fill-opacity="1" stroke="none" transform="matrix(1,0,0,1,738,209)" dominant-baseline="central" text-anchor="end" x="-5" y="7" style="font: 12px &quot;Microsoft YaHei&quot;;">y2</text>
<path d="M 3.5 0 L 21.5 0 A 3.5 3.5 0 0 1 25 3.5 L 25 10.5 A 3.5 3.5 0 0 1 21.5 14 L 3.5 14 A 3.5 3.5 0 0 1 0 10.5 L 0 3.5 A 3.5 3.5 0 0 1 3.5 0" fill="#fac858" fill-opacity="1" stroke="none" transform="matrix(1,0,0,1,738,233)">
</path>
<text xml:space="preserve" fill="#333" fill-opacity="1" stroke="none" transform="matrix(1,0,0,1,738,233)" dominant-baseline="central" text-anchor="end" x="-5" y="7" style="font: 12px &quot;Microsoft YaHei&quot;;">y3 </text>
<path d="M -52.9707 -5 L 52.9707 -5 L 52.9707 23 L -52.9707 23 L -52.9707 -5" fill="rgba(0,0,0,0)" fill-opacity="1" stroke="#ccc" stroke-width="0" paint-order="fill" stroke-opacity="1" stroke-dasharray="" stroke-linecap="butt" stroke-miterlimit="10" transform="matrix(1,0,0,1,384,5)">
</path>
<text xml:space="preserve" fill="#464646" fill-opacity="1" stroke="none" transform="matrix(1,0,0,1,384,5)" dominant-baseline="central" text-anchor="middle" x="0" y="9" style="font: bold 18px &quot;Microsoft YaHei&quot;;">Histogram</text>
</g>
</svg>